<svg xmlns="http://www.w3.org/2000/svg" width="95.72" height="95.72" viewBox="0 0 95.72 95.72">
  <path id="Icon_awesome-wordpress" data-name="Icon awesome-wordpress" d="M10.926,31.71,30.514,85.36A41.065,41.065,0,0,1,10.926,31.71ZM76.135,46.358A21.651,21.651,0,0,0,72.758,35.03c-2.084-3.377-4.033-6.253-4.033-9.63a7.106,7.106,0,0,1,6.89-7.295c.174,0,.347.019.54.039A41.052,41.052,0,0,0,14.11,25.863c.965.039,1.872.058,2.644.058,4.284,0,10.942-.521,10.942-.521a1.694,1.694,0,0,1,.27,3.377s-2.219.251-4.69.386L38.233,73.626l8.993-26.941L40.838,29.163c-2.219-.135-4.3-.386-4.3-.386-2.219-.135-1.949-3.512.251-3.377,0,0,6.774.521,10.807.521,4.284,0,10.942-.521,10.942-.521a1.694,1.694,0,0,1,.27,3.377s-2.219.251-4.69.386L68.956,73.3l4.091-13.683C74.784,53.942,76.135,49.87,76.135,46.358Zm-27,5.654-12.312,35.8a40.909,40.909,0,0,0,25.223-.656,3.075,3.075,0,0,1-.289-.56L49.137,52.012ZM84.453,28.719a31.984,31.984,0,0,1,.27,4.226A38.57,38.57,0,0,1,81.6,47.651L69.053,83.913a41.1,41.1,0,0,0,15.4-55.194Zm11.83,19.7A47.86,47.86,0,1,1,48.423.563,47.914,47.914,0,0,1,96.283,48.423Zm-2.2,0a45.66,45.66,0,1,0-45.66,45.66A45.715,45.715,0,0,0,94.083,48.423Z" transform="translate(-0.563 -0.563)" fill="#cc1313" opacity="0.8"/>
</svg>
