<svg xmlns="http://www.w3.org/2000/svg" width="77.311" height="103.081" viewBox="0 0 77.311 103.081">
  <path id="Icon_awesome-file-video" data-name="Icon awesome-file-video" d="M77.311,24.55v1.22H51.541V0h1.22a4.833,4.833,0,0,1,3.417,1.415L75.9,21.134a4.833,4.833,0,0,1,1.415,3.417ZM45.1,27.381V0H4.832A4.832,4.832,0,0,0,0,4.832V98.249a4.832,4.832,0,0,0,4.832,4.832H72.479a4.832,4.832,0,0,0,4.832-4.832V32.213H49.93A4.846,4.846,0,0,1,45.1,27.381ZM64.426,56.376V78.917a4.835,4.835,0,0,1-8.249,3.417L45.1,71.259v7.662a4.832,4.832,0,0,1-4.832,4.832H17.717a4.832,4.832,0,0,1-4.832-4.832V56.372a4.832,4.832,0,0,1,4.832-4.832H40.266A4.832,4.832,0,0,1,45.1,56.372v7.662L56.177,52.959A4.835,4.835,0,0,1,64.426,56.376Z" fill="#cc1313" opacity="0.8"/>
</svg>
